<svg width="220" height="70" xmlns="http://www.w3.org/2000/svg"><g fill="#000" fill-rule="nonzero"><path d="M91.319 40.38V28.677h5.913c11.888 0 11.95-18.935 0-18.935h-12.04V40.38h6.127zm0-17.678V15.84h5.423c4.106 0 4.106 6.863 0 6.863h-5.423zm34.499 18.107c21.11 0 21.11-31.618 0-31.618s-21.11 31.618 0 31.618zm0-6.342c-12.286 0-12.286-18.965 0-18.965 12.255 0 12.255 18.965 0 18.965zM169.6 40.38l-7.108-12.653c9.008-2.604 7.935-18.016-3.003-18.016h-12.102v30.67h6.128V28.676h2.972l6.158 11.703h6.955zm-16.085-24.54h5.423c4.136 0 4.136 6.862 0 6.862h-5.423V15.84zm42.158 13.848V9.71h-6.066v19.946c0 6.434-9.958 6.434-9.958 0V9.711h-6.127v19.977c0 14.584 22.151 14.584 22.151 0zm5.362 8.732c4.167 2.144 7.996 2.359 9.712 2.206 5.73-.276 9.253-4.198 9.253-9.284 0-4.902-4.106-7.66-8.885-9.406-1.747-.613-3.248-1.379-3.432-3.094-.122-1.716.858-3.31 3.064-3.432.95-.03 2.88-.092 6.25 1.287l.766-5.913c-3.921-1.379-6.035-1.379-7.629-1.287-5.086.245-8.67 4.197-8.67 9.345 0 5.147 4.29 7.598 9.1 9.344 1.715.613 3.063 1.38 3.186 3.156.153 1.655-1.379 2.941-3.187 3.064-1.409.153-5.239.061-8.732-2.42l-.796 6.434zM72.191 63.294a36.42 36.42 0 00-.815-7.386 36.465 36.465 0 00-1.31-4.581c-2.092-5.787-5.624-10.884-10.153-14.879a37.561 37.561 0 00-4.153-3.165 35.723 35.723 0 00-6.602-3.38 36.055 36.055 0 00-4.551-1.44 36.39 36.39 0 00-17.023 0 24.64 24.64 0 00-.42 4.562 25 25 0 00.098 2.211 29.67 29.67 0 018.833-1.342c3.07 0 6.042.472 8.833 1.342 1.418.444 2.8.997 4.133 1.653a28.944 28.944 0 015.88 3.779 28.878 28.878 0 013.555 3.487 29.352 29.352 0 016.095 11.174c.408 1.415.72 2.875.902 4.366a30.35 30.35 0 01-4.132 1.653 29.922 29.922 0 01-8.823 1.332c-1.684 0-3.365-.146-5.024-.439a40.102 40.102 0 01-6.44 5.013 35.948 35.948 0 0011.464 1.867c2.931 0 5.775-.353 8.5-1.008a34.52 34.52 0 004.551-1.44 35.63 35.63 0 006.602-3.379z"/><path d="M7.599 55.33a29.33 29.33 0 016.096-11.175 40.494 40.494 0 01-1.416-7.707A36.342 36.342 0 002.125 51.326a36.076 36.076 0 00-1.31 4.58A36.405 36.405 0 000 63.295a35.8 35.8 0 006.6 3.38 34.618 34.618 0 004.55 1.44 36.36 36.36 0 008.502 1.007c4.003 0 7.857-.655 11.462-1.867a35.29 35.29 0 004.981-2.092 36.263 36.263 0 006.43-4.232 36.5 36.5 0 003.584-3.368 36.018 36.018 0 007.513-12.312 24.858 24.858 0 00-5.473-4.004c-1.525 5.302-4.498 9.993-8.46 13.633a29.379 29.379 0 01-3.594 2.811 29.149 29.149 0 01-6.43 3.24 26.776 26.776 0 01-4.99 1.312c-1.659.292-3.34.44-5.023.44-3.07 0-6.033-.472-8.824-1.333a30.528 30.528 0 01-4.133-1.653c.186-1.477.488-2.937.904-4.366z"/><path d="M48.214 25.018c2.501.784 4.917 1.816 7.212 3.08-1.03-7.524-4.379-14.306-9.316-19.62a36.615 36.615 0 00-3.584-3.37 36.173 36.173 0 00-6.43-4.23 36.095 36.095 0 00-6.43 4.23 36.787 36.787 0 00-3.585 3.37c-4.938 5.313-8.286 12.096-9.316 19.62a37.274 37.274 0 00-.333 4.927v.257c.02 2.483.292 4.958.815 7.386a34.554 34.554 0 001.32 4.582 36.033 36.033 0 007.514 12.313 24.85 24.85 0 006.418-2.685c-3.96-3.64-6.933-8.33-8.457-13.633a27.805 27.805 0 01-.913-4.356 28.845 28.845 0 01-.258-3.866 29.208 29.208 0 011.106-8.007c1.503-5.399 4.508-10.165 8.523-13.856a30.58 30.58 0 013.596-2.823 30.504 30.504 0 013.594 2.823c4.015 3.693 7.02 8.459 8.524 13.858z"/><g><path d="M85.191 51.009v5.586h.24v-2.348h.883l1.785 2.348h.307l-1.818-2.354c.513-.034.918-.182 1.226-.456.307-.268.456-.656.456-1.157 0-.53-.171-.935-.52-1.209-.341-.273-.797-.41-1.362-.41h-1.197zm.24.234h.957c.496 0 .89.114 1.192.353.296.234.444.581.444 1.032 0 .456-.148.798-.444 1.032-.302.239-.696.359-1.192.359h-.957v-2.776zm8.003 2.434h2.474v-.228h-2.474v-2.206h2.634v-.234h-2.873v5.586h2.873v-.233h-2.634v-2.685zm7.798 1.288l-.216.091c.359 1.066.957 1.602 1.795 1.602.525 0 .918-.148 1.18-.445.268-.296.4-.66.4-1.094 0-.2-.03-.376-.098-.542a1.79 1.79 0 00-.222-.393c-.085-.103-.2-.2-.348-.29a4.87 4.87 0 00-.364-.206c-.092-.04-.217-.091-.377-.16a2.595 2.595 0 01-.2-.08c-.113-.04-.182-.068-.21-.08-.023-.016-.086-.039-.183-.079a1.461 1.461 0 01-.188-.091c-.028-.023-.08-.057-.154-.108a.653.653 0 01-.153-.12c-.023-.034-.063-.08-.109-.137a.456.456 0 01-.102-.171 2.575 2.575 0 01-.052-.182.999.999 0 01-.023-.228c0-.325.115-.588.337-.776a1.28 1.28 0 01.843-.285c.645 0 1.09.37 1.34 1.112l.234-.097c-.12-.382-.308-.69-.576-.918-.268-.228-.598-.342-.992-.342-.393 0-.735.12-1.026.365-.285.245-.433.57-.433.975 0 .2.04.382.125.541.08.16.206.297.365.41.165.115.308.206.439.263.131.063.302.137.507.217.16.057.268.096.331.125.057.028.154.074.29.142.143.063.24.126.303.183.063.063.131.137.216.234.08.097.137.205.171.325.029.125.046.262.046.416 0 .382-.108.695-.325.929-.21.234-.536.348-.969.348-.701 0-1.237-.485-1.602-1.454zm8.226-1.163c0-.752.234-1.374.695-1.875.462-.502 1.05-.753 1.756-.753.707 0 1.294.251 1.756.753.462.501.695 1.123.695 1.875 0 .753-.233 1.374-.695 1.876-.462.501-1.049.752-1.756.752-.707 0-1.294-.25-1.756-.752-.461-.502-.695-1.123-.695-1.876zm-.24 0c0 .832.257 1.516.764 2.052.508.536 1.152.804 1.927.804.775 0 1.42-.268 1.927-.804.507-.536.764-1.22.764-2.052 0-.832-.257-1.516-.764-2.052s-1.152-.804-1.927-.804c-.775 0-1.42.268-1.927.804-.507.536-.763 1.22-.763 2.052zm10.45-2.793v3.67c0 .6.159 1.078.484 1.443.325.37.758.553 1.294.553s.969-.182 1.294-.553c.325-.365.484-.844.484-1.442v-3.671h-.239v3.67c0 .531-.143.959-.433 1.272-.291.314-.656.468-1.106.468-.445 0-.815-.154-1.106-.468-.29-.313-.433-.74-.433-1.271v-3.671h-.24zm8.943 0v5.586h.24v-2.348h.889l1.778 2.348h.314l-1.824-2.354c.513-.034.923-.182 1.225-.456.308-.268.462-.656.462-1.157 0-.53-.177-.935-.519-1.209-.347-.273-.803-.41-1.368-.41h-1.197zm.24.234h.957c.496 0 .895.114 1.192.353.296.234.444.581.444 1.032 0 .456-.148.798-.444 1.032-.297.239-.696.359-1.192.359h-.957v-2.776zm7.712 2.56c0-.782.217-1.415.65-1.893.433-.485 1.01-.724 1.722-.724.678 0 1.277.245 1.795.74v-.341c-.484-.428-1.083-.639-1.795-.639-.776 0-1.408.268-1.899.798-.49.536-.735 1.22-.735 2.058 0 .838.245 1.522.735 2.052.49.536 1.123.804 1.899.804.712 0 1.31-.21 1.795-.638v-.32a2.491 2.491 0 01-1.795.719c-.713 0-1.289-.24-1.722-.719-.433-.484-.65-1.117-.65-1.898zm9.754-.126h2.474v-.228h-2.474v-2.206h2.633v-.234h-2.873v5.586h2.873v-.233h-2.633v-2.685zm19.062-2.064l.49 4.982h.24l-.6-5.786-2.234 4.703-2.234-4.703-.599 5.786h.24l.484-4.982 2.11 4.464 2.103-4.464zm7.752-.804l-2.434 5.786h.28l.724-1.755h2.855l.73 1.755h.28l-2.435-5.786zm0 .599l1.317 3.175h-2.633l1.316-3.175zm11.213-.4v5.126l-4.27-5.325v5.786h.24v-5.124l4.27 5.324v-5.786h-.24zm7.183-.199l-2.435 5.786h.28l.724-1.755h2.856l.73 1.755h.279l-2.434-5.786zm0 .599l1.316 3.175h-2.633l1.317-3.175zm11.89 2.354h-2.314v.274h2.04c-.045.69-.273 1.26-.677 1.699-.405.444-.941.666-1.602.666-.736 0-1.328-.25-1.784-.752-.45-.502-.679-1.117-.679-1.847 0-.741.234-1.357.696-1.853.456-.501 1.049-.746 1.767-.746.422 0 .82.097 1.18.29.365.2.661.468.878.798l.222-.17c-.25-.365-.57-.65-.958-.861a2.731 2.731 0 00-1.322-.314c-.775 0-1.42.274-1.938.821-.52.547-.776 1.226-.776 2.035 0 .81.257 1.488.776 2.035.518.547 1.163.821 1.938.821.78 0 1.402-.28 1.864-.844.456-.558.69-1.242.69-2.052zm5.387-.085h2.474v-.228h-2.474v-2.206h2.634v-.234h-2.873v5.586h2.873v-.233h-2.634v-2.685zm7.981-2.668v5.586h.24v-2.348h.883l1.778 2.348H220l-1.818-2.354c.507-.034.917-.182 1.225-.456.302-.268.456-.656.456-1.157 0-.53-.17-.935-.519-1.209-.347-.273-.798-.41-1.362-.41h-1.197zm.24.234h.957c.49 0 .89.114 1.186.353.296.234.45.581.45 1.032 0 .456-.154.798-.45 1.032-.297.239-.696.359-1.186.359h-.958v-2.776z"/></g></g></svg>
