<svg data-v-423bf9ae="" xmlns="http://www.w3.org/2000/svg" viewBox="0 0 63.47190937509912 60" class="icon"><!----><!----><!----><!----><g data-v-423bf9ae="" id="b8824c3d-cad6-4bf2-957c-a51c9b7cc2c1" transform="matrix(0.6347190937509912,0,0,0.6347190937509912,-4.0288159297574566e-7,-0.0000027237457160822487)" stroke="none" fill="black"><g><path d="M100 86.458a50.449 50.449 0 0 0-1.129-10.231 50.511 50.511 0 0 0-1.814-6.346c-2.899-8.016-7.791-15.076-14.065-20.61a52.03 52.03 0 0 0-5.753-4.385 49.484 49.484 0 0 0-9.145-4.682 49.944 49.944 0 0 0-6.304-1.993 50.409 50.409 0 0 0-23.581 0 34.129 34.129 0 0 0-.58 6.318c0 1.026.044 2.051.134 3.063a41.098 41.098 0 0 1 12.236-1.859c4.253 0 8.369.654 12.236 1.859a39.958 39.958 0 0 1 5.724 2.29 40.094 40.094 0 0 1 8.146 5.234 40.002 40.002 0 0 1 4.924 4.83 40.658 40.658 0 0 1 8.443 15.479c.565 1.96.997 3.983 1.25 6.048a42.042 42.042 0 0 1-5.724 2.29 41.448 41.448 0 0 1-12.222 1.845A40.11 40.11 0 0 1 65.817 85a55.55 55.55 0 0 1-8.922 6.943 49.795 49.795 0 0 0 15.881 2.586c4.06 0 7.999-.489 11.775-1.396a47.817 47.817 0 0 0 6.304-1.994A49.354 49.354 0 0 0 100 86.458z"></path><path d="M10.526 75.426a40.628 40.628 0 0 1 8.445-15.479 56.092 56.092 0 0 1-1.962-10.676C10.734 54.803 5.842 61.866 2.943 69.88a49.973 49.973 0 0 0-1.814 6.345A50.429 50.429 0 0 0 0 86.458a49.59 49.59 0 0 0 9.143 4.682 47.953 47.953 0 0 0 6.303 1.994 50.368 50.368 0 0 0 11.776 1.396c5.545 0 10.883-.908 15.878-2.586a48.885 48.885 0 0 0 6.899-2.899 50.232 50.232 0 0 0 8.907-5.861 50.56 50.56 0 0 0 4.965-4.666 49.893 49.893 0 0 0 10.407-17.055 34.433 34.433 0 0 0-7.582-5.546c-2.112 7.345-6.23 13.842-11.718 18.884a40.696 40.696 0 0 1-4.979 3.895 40.377 40.377 0 0 1-8.907 4.488 37.09 37.09 0 0 1-6.913 1.817 40.053 40.053 0 0 1-6.957.608c-4.252 0-8.357-.653-12.223-1.845a42.288 42.288 0 0 1-5.725-2.29 39.158 39.158 0 0 1 1.252-6.048z"></path><path d="M66.787 33.438a54.44 54.44 0 0 1 9.99 4.267c-1.428-10.423-6.066-19.818-12.905-27.178a50.719 50.719 0 0 0-4.965-4.669A50.107 50.107 0 0 0 50 0a49.999 49.999 0 0 0-8.907 5.858 50.957 50.957 0 0 0-4.966 4.669c-6.839 7.359-11.477 16.755-12.904 27.178a51.632 51.632 0 0 0-.461 6.824v.356a50.401 50.401 0 0 0 1.129 10.231 47.864 47.864 0 0 0 1.829 6.347 49.913 49.913 0 0 0 10.407 17.056 34.423 34.423 0 0 0 8.891-3.719c-5.485-5.042-9.604-11.539-11.715-18.884a38.516 38.516 0 0 1-1.265-6.035 39.956 39.956 0 0 1-.357-5.354 41.4 41.4 0 0 1 .224-4.326c.252-2.32.683-4.58 1.308-6.765 2.082-7.479 6.245-14.082 11.806-19.195A42.359 42.359 0 0 1 50 10.331a42.255 42.255 0 0 1 4.979 3.91c5.562 5.116 9.725 11.718 11.808 19.197z"></path></g></g><!----></svg>